<svg xmlns="http://www.w3.org/2000/svg" width="800" height="800" viewBox="0 0 49.978 49.978" xml:space="preserve">
    <path d="m45.578 24.516-4.286-.635a15.463 15.463 0 0 0-4.356-10.029l4.039-4.038-.279-.28-4.037 4.036a15.468 15.468 0 0 0-10.453-4.422l-.568-3.837v3.825-3.825l-.57 3.854a15.468 15.468 0 0 0-10.055 4.355l-4.03-3.986-.301.301 4.028 3.985a15.46 15.46 0 0 0-4.399 10.319l-3.703.548 3.705.549a15.456 15.456 0 0 0 4.342 10.192l-3.975 3.953.301.301 3.972-3.949a15.467 15.467 0 0 0 10.287 4.418l.567 3.84v-3.812 3.812l.567-3.84a15.46 15.46 0 0 0 10.244-4.379l4.055 4.053.301-.301-4.054-4.054a15.465 15.465 0 0 0 4.385-10.321l4.273-.633zm-23.649-2.098-4.201.622a8.212 8.212 0 0 1 1.856-3.768l2.345 3.146zm-1.439-4.043a8.203 8.203 0 0 1 3.469-1.74l-.565 3.815-2.904-2.075zm3.605-2.659c-.213.04-.425.086-.632.142l-.298-1.691c.388-.098.788-.16 1.191-.212l-.261 1.761zm-.839.194a8.981 8.981 0 0 0-1.845.765l-.822-1.502c.74-.409 1.537-.726 2.37-.953l.297 1.69zm-2.027.874a9.277 9.277 0 0 0-1.455 1.079l-1.43-1.021a10.873 10.873 0 0 1 2.063-1.558l.822 1.5zm-2.168 1.787a9.233 9.233 0 0 0-1.142 1.534l-1.368-1.04c.417-.688.917-1.313 1.47-1.89l1.04 1.396zm-1.252 1.718a9.151 9.151 0 0 0-.766 1.89l-1.657-.421c.246-.889.602-1.729 1.055-2.509l1.368 1.04zm-.818 2.097a8.949 8.949 0 0 0-.155.786l-1.77.262c.059-.5.144-.991.266-1.469l1.659.421zm5.867.326 1.117.776.001.024a2.278 2.278 0 0 0-.257.746H12.414l10.444-1.546zm-3.431 7.133a8.177 8.177 0 0 1-1.675-3.508l3.782.562-2.107 2.946zm4.077-1.413.634 4.282a8.225 8.225 0 0 1-3.838-1.952l3.204-2.33zm-6.657-2.229c.048.297.105.591.185.877l-1.692.287c-.12-.463-.202-.941-.264-1.426l1.771.262zm.238 1.084c.213.703.514 1.365.881 1.986l-1.553.737a10.744 10.744 0 0 1-1.021-2.437l1.693-.286zm.991 2.17c.247.395.532.761.833 1.111l-1.017 1.422a10.973 10.973 0 0 1-1.369-1.795l1.553-.738zm1.509 1.822a9.199 9.199 0 0 0 1.581 1.203l-.948 1.424a10.898 10.898 0 0 1-2.041-1.603l1.408-1.024zm1.763 1.315a8.925 8.925 0 0 0 1.955.814l-.44 1.652a10.734 10.734 0 0 1-2.462-1.043l.947-1.423zm2.162.869c.249.064.505.105.761.15l.262 1.771a11.17 11.17 0 0 1-1.463-.271l.44-1.65zm.328-5.688.082-.162.688-.989.308-.019c.147.076.303.135.465.18l-.001 11.4-1.542-10.41zm.699-3.175a1.418 1.418 0 1 1 2.836.002 1.418 1.418 0 0 1-2.836-.002zm5.334 2.242 4.021-.596a8.194 8.194 0 0 1-1.751 3.672l-2.27-3.076zm1.347 4.032a8.252 8.252 0 0 1-3.147 1.718l-.033.007v.003c-.182.051-.375.075-.562.113l.613-4.143.05.101 3.079 2.201zm-3.248-9.788-.671-4.536a8.202 8.202 0 0 1 3.996 1.979l-3.325 2.557zm4.087-1.776a8.191 8.191 0 0 1 1.756 3.463l-3.826-.566 2.07-2.897zm2.67 3.598c-.027-.136-.043-.275-.076-.41l1.684-.324c.076.326.129.661.173.998l-1.781-.264zm-.129-.617a9.034 9.034 0 0 0-.878-2.137l1.524-.783c.453.807.801 1.678 1.035 2.596l-1.681.324zm-.987-2.319a9.285 9.285 0 0 0-1.041-1.379l1.02-1.427a10.855 10.855 0 0 1 1.545 2.023l-1.524.783zm-1.623-1.977a9.068 9.068 0 0 0-1.582-1.196l.976-1.408a10.9 10.9 0 0 1 1.981 1.548l-1.375 1.056zm-1.765-1.307a9.025 9.025 0 0 0-1.843-.771l.569-1.619c.793.241 1.545.576 2.248.982l-.974 1.408zm-2.049-.826a9.5 9.5 0 0 0-1.005-.199l-.261-1.765c.627.066 1.242.177 1.834.344l-.568 1.62zm-.565 5.7-.688.987a2.242 2.242 0 0 0-.859-.208V11.117l1.547 10.445zm-.266 12.053c.287-.047.571-.102.849-.178l.313 1.687c-.462.118-.94.2-1.423.261l.261-1.77zm1.055-.228a9.189 9.189 0 0 0 1.971-.857l.759 1.541c-.757.429-1.563.764-2.416 1.002l-.314-1.686zm2.154-.968c.491-.302.94-.66 1.364-1.046l1.43 1.021a10.786 10.786 0 0 1-2.038 1.564l-.756-1.539zm2.104-1.804c.344-.396.666-.809.938-1.258l1.39 1.006a10.744 10.744 0 0 1-1.291 1.654l-1.037-1.402zm1.052-1.44a9.129 9.129 0 0 0 .895-2.177l1.632.521a10.756 10.756 0 0 1-1.138 2.661l-1.389-1.005zm.948-2.384c.053-.221.086-.449.125-.678l1.75-.258c-.054.494-.125.984-.246 1.457l-1.629-.521zm-5.328-.303-1.115-.774-.039-.657c.008-.038.021-.075.025-.113h11.414l-.002.024-10.283 1.52zm10.248-2.862-2.631-.39a11.2 11.2 0 0 0-3.102-6.426l.387-.539-.519.398a11.22 11.22 0 0 0-6.867-3.199l-.386-2.607c6.976.328 12.604 5.837 13.118 12.763zm-13.94-12.787v3.405-3.405zm-.825.042-.391 2.638c-.45.053-.896.12-1.33.228l-.001-.008-.21.037.005.024a11.269 11.269 0 0 0-4.894 2.789l-.872-.623.634.851a11.196 11.196 0 0 0-3.13 6.684l-2.599.385c.384-6.933 5.886-12.51 12.788-13.005zM12.028 25.489l2.619.388a11.192 11.192 0 0 0 1.43 4.402l.051.104.012-.005c.424.714.931 1.37 1.496 1.972l-.517.723.711-.517a11.205 11.205 0 0 0 6.768 3.265l.386 2.611c-6.959-.411-12.537-5.985-12.956-12.943zm13.779 12.986v-3.418 3.418zm.823-.042.388-2.618a11.197 11.197 0 0 0 6.68-3.168l.973.694-.715-.968a11.184 11.184 0 0 0 3.021-6.584l2.613-.387c-.379 7-5.973 12.616-12.96 13.031zM24.993 2.098h.011l1.429 1.908h1.475V.6h-1.289v1.888h-.014L25.24.6h-1.534v3.406h1.287zM26.656 47.16l-1.606-.238c-.066-.01-.113-.027-.138-.061a.172.172 0 0 1-.039-.115c0-.073.04-.133.119-.178.079-.045.22-.066.42-.066.072 0 .146.006.22.018s.142.029.198.055a.367.367 0 0 1 .152.104.26.26 0 0 1 .055.169H27.6a.999.999 0 0 0-.149-.479c-.088-.139-.219-.254-.396-.348s-.399-.166-.67-.215a5.456 5.456 0 0 0-.974-.074c-.277 0-.535.018-.775.051s-.448.092-.625.18a1.07 1.07 0 0 0-.417.345.93.93 0 0 0-.152.548c0 .12.018.233.053.338a.768.768 0 0 0 .164.281c.075.082.172.153.288.213.117.059.259.102.426.127l1.535.229c.094.017.156.046.191.088a.224.224 0 0 1 .053.143.234.234 0 0 1-.109.199c-.073.051-.215.076-.426.076-.207 0-.357-.023-.457-.07a.275.275 0 0 1-.144-.244h-1.621c0 .252.063.451.192.603.129.147.297.265.506.345.207.082.44.137.698.16.258.025.516.038.772.038.758 0 1.312-.099 1.662-.298.352-.198.526-.506.526-.924 0-.289-.097-.514-.29-.676-.192-.164-.46-.272-.805-.324zM3.83 25.029h-.01l-.497-2.08H2.25l-.501 2.08H1.74l-.439-2.08H0l.991 3.406h1.321l.468-1.888h.009l.464 1.888h1.32l.997-3.406H4.268zM49.978 23.565v-.83h-3.621v3.406h3.621v-.83h-2.275v-.458h2.113v-.83h-2.113v-.458z"/>
</svg>
